<?xml version="1.0" encoding="UTF-8" standalone="no"?>
<svg
   xmlns:dc="http://purl.org/dc/elements/1.1/"
   xmlns:cc="http://creativecommons.org/ns#"
   xmlns:rdf="http://www.w3.org/1999/02/22-rdf-syntax-ns#"
   xmlns:svg="http://www.w3.org/2000/svg"
   xmlns="http://www.w3.org/2000/svg"
   xmlns:sodipodi="http://sodipodi.sourceforge.net/DTD/sodipodi-0.dtd"
   xmlns:inkscape="http://www.inkscape.org/namespaces/inkscape"
   id="Layer_1"
   data-name="Layer 1"
   viewBox="0 0 201.12 285.8"
   version="1.1"
   sodipodi:docname="logo.svg"
   inkscape:version="1.0.2 (1.0.2+r75+1)">
  <metadata
     id="metadata27">
    <rdf:RDF>
      <cc:Work
         rdf:about="">
        <dc:format>image/svg+xml</dc:format>
        <dc:type
           rdf:resource="http://purl.org/dc/dcmitype/StillImage" />
      </cc:Work>
    </rdf:RDF>
  </metadata>
  <sodipodi:namedview
     pagecolor="#ffffff"
     bordercolor="#666666"
     borderopacity="1"
     objecttolerance="10"
     gridtolerance="10"
     guidetolerance="10"
     inkscape:pageopacity="0"
     inkscape:pageshadow="2"
     inkscape:window-width="1848"
     inkscape:window-height="1016"
     id="namedview25"
     showgrid="false"
     inkscape:zoom="1.0046405"
     inkscape:cx="-54.761139"
     inkscape:cy="105.99973"
     inkscape:window-x="72"
     inkscape:window-y="27"
     inkscape:window-maximized="1"
     inkscape:current-layer="Layer_1" />
  <defs
     id="defs4">
    <style
       id="style2">.cls-1{fill:#7828c9;}</style>
  </defs>
  <title
     id="title6">Logo</title>
  <circle
     class="cls-1"
     cx="66.34"
     cy="61.27"
     r="12.25"
     id="circle8"
     style="fill:#ffffff;fill-opacity:1" />
  <circle
     class="cls-1"
     cx="51.13"
     cy="37.6"
     r="8.03"
     id="circle10"
     style="fill:#ffffff;fill-opacity:1" />
  <circle
     class="cls-1"
     cx="100.98"
     cy="51.97"
     r="12.25"
     id="circle12"
     style="fill:#ffffff;fill-opacity:1" />
  <circle
     class="cls-1"
     cx="100.98"
     cy="24.93"
     r="8.03"
     id="circle14"
     style="fill:#ffffff;fill-opacity:1" />
  <circle
     class="cls-1"
     cx="100.98"
     cy="5.49"
     r="5.49"
     id="circle16"
     style="fill:#ffffff;fill-opacity:1" />
  <circle
     class="cls-1"
     cx="133.94"
     cy="62.11"
     r="12.25"
     id="circle18"
     style="fill:#ffffff;fill-opacity:1" />
  <circle
     class="cls-1"
     cx="149.15"
     cy="38.45"
     r="8.03"
     id="circle20"
     style="fill:#ffffff;fill-opacity:1" />
  <path
     class="cls-1"
     d="M243.12,112.81A31.35,31.35,0,0,0,203,99.42c-11.61,5.07-28.58,8.27-47.48,8.27-28.29,0-52.24-7.17-60.39-17.06a7.1,7.1,0,0,0-10.52-.28,104.81,104.81,0,0,0-.16,145.93L137,290.14a26.05,26.05,0,0,0,37.35-.05l52.25-53.85a105,105,0,0,0,16.51-123.43Z"
     transform="translate(-54.94 -12.2)"
     id="path22"
     style="fill:#ffffff;fill-opacity:1" />
</svg>
