<svg xmlns="http://www.w3.org/2000/svg" viewBox="0 0 116.06 29.43"><defs><style>.cls-1{fill:none;stroke:#fff;stroke-miterlimit:10;}</style></defs><title>Asset 2</title><g id="Layer_2" data-name="Layer 2"><g id="Layer_1-2" data-name="Layer 1"><path class="cls-1" d="M26.91,1.87a2.44,2.44,0,0,0-1.68-.66,2.25,2.25,0,0,0-1.91,1L21.68,4.71l-4.16,6.22-2.94,4.39h0l-3.4-5.24-.68-1L6.34,2.66l-.26-.4a2.16,2.16,0,0,0-.91-.76A2.6,2.6,0,0,0,4,1.21a2.39,2.39,0,0,0-1.74.7l-.17.18a2.22,2.22,0,0,0-.55,1.49V26.17a2.43,2.43,0,0,0,.62,1.69,2.06,2.06,0,0,0,1.6.68,2.09,2.09,0,0,0,1.64-.68,2.39,2.39,0,0,0,.63-1.69V10.11l1.11,1.75,1.7,2.7,3.62,5.72a3.39,3.39,0,0,0,.88.74,1.69,1.69,0,0,0,1,.27A1.75,1.75,0,0,0,15.46,21a3.23,3.23,0,0,0,.88-.74l2.85-4.34,2.89-4.4.7-1.07v15.7a2.27,2.27,0,0,0,.68,1.69,2.37,2.37,0,0,0,1.77.68,2.3,2.3,0,0,0,2.42-2.37V3.58A2.2,2.2,0,0,0,26.91,1.87Z"/><path class="cls-1" d="M52.4,8.81A2.38,2.38,0,0,0,48.52,8a2.17,2.17,0,0,0-.24.29,2.33,2.33,0,0,0-.43,1.41v.05a7.11,7.11,0,0,0-.76-.64A9,9,0,0,0,44.66,7.8l-.15,0a8.72,8.72,0,0,0-2.94-.47h-.44a8.31,8.31,0,0,0-2.73.57,7.82,7.82,0,0,0-1.58.8c-.19.12-.37.25-.55.38A10.13,10.13,0,0,0,33.4,12.5c-.09.17-.17.34-.25.52a12.1,12.1,0,0,0-1,4.65c0,.15,0,.3,0,.46a12,12,0,0,0,1.26,5.6,9.83,9.83,0,0,0,3.45,3.82,8.69,8.69,0,0,0,3.2,1.23,9.21,9.21,0,0,0,1.68.15,7.72,7.72,0,0,0,2.75-.48,9.18,9.18,0,0,0,2.2-1.19,8.16,8.16,0,0,0,1.17-1.05,2.3,2.3,0,0,0,.67,1.65,2.4,2.4,0,0,0,3.35,0,2.33,2.33,0,0,0,.66-1.69V9.67A2.63,2.63,0,0,0,52.4,8.81ZM48,17.66c0,.15,0,.31,0,.47a7.93,7.93,0,0,1-.16,1.64,6.92,6.92,0,0,1-.56,1.68,5.75,5.75,0,0,1-2,2.34,5.7,5.7,0,0,1-3,.85,5.24,5.24,0,0,1-3-.85,5.75,5.75,0,0,1-2-2.34,7.55,7.55,0,0,1-.72-3.19v-.13a7.56,7.56,0,0,1,.72-3.35,5.22,5.22,0,0,1,.7-1.11,5.3,5.3,0,0,1,1.31-1.23l.42-.24a3.69,3.69,0,0,1,.79-.34,5.26,5.26,0,0,1,1.75-.28,5.32,5.32,0,0,1,3,.86,5.75,5.75,0,0,1,2,2.34l.06.14A7.31,7.31,0,0,1,48,17.66Z"/><path class="cls-1" d="M68.64,8.69a2.15,2.15,0,0,0-1.56-.62H57.84a2.14,2.14,0,0,0-1.56.6,1.9,1.9,0,0,0-.43.6,2,2,0,0,0-.2.91,2.14,2.14,0,0,0,2.19,2.18h9.24a2.17,2.17,0,0,0,1.56-.6,2.07,2.07,0,0,0,.48-.72,2.26,2.26,0,0,0,.14-.79A2.11,2.11,0,0,0,68.64,8.69Zm0,16a1.33,1.33,0,0,0-1-.5,2.29,2.29,0,0,0-.9.17,2,2,0,0,1-.86.18,1.94,1.94,0,0,1-.8-.16,1.18,1.18,0,0,1-.58-.5,1.67,1.67,0,0,1-.22-.9V5.57a2.36,2.36,0,0,0-.64-1.69A2.17,2.17,0,0,0,62,3.19a2.3,2.3,0,0,0-1.7.69A2.72,2.72,0,0,0,60,4.3,2.07,2.07,0,0,0,59.7,5a2.2,2.2,0,0,0-.07.58V23.12a6.43,6.43,0,0,0,.59,3,4.13,4.13,0,0,0,1.46,1.62,4.87,4.87,0,0,0,1.87.66,13.5,13.5,0,0,0,1.81.13,4.93,4.93,0,0,0,2.56-.7,2.1,2.1,0,0,0,.74-3.2Z"/><path class="cls-1" d="M86.94,8.63A2.38,2.38,0,0,0,86.37,8a3,3,0,0,0-2-.66,8.65,8.65,0,0,0-2,.23,6.63,6.63,0,0,0-1.09.36,6.86,6.86,0,0,0-2.29,1.57,6.7,6.7,0,0,0-.84,1.14v-.53a2.35,2.35,0,0,0-.66-1.7,2.4,2.4,0,0,0-3.35,0,2.32,2.32,0,0,0-.67,1.7V26.17a2.3,2.3,0,0,0,.67,1.69,2.4,2.4,0,0,0,3.35,0,2.33,2.33,0,0,0,.66-1.69V16.92a7.35,7.35,0,0,1,.37-2.43,5.6,5.6,0,0,1,1-1.74,3.45,3.45,0,0,1,.26-.28l.21-.19a3.34,3.34,0,0,1,.86-.56,3.39,3.39,0,0,1,1.42-.34,3.33,3.33,0,0,1,1.38.28,3.29,3.29,0,0,0,1.35.27,2.16,2.16,0,0,0,1.44-.57,2.3,2.3,0,0,0,.66-1.85A1.77,1.77,0,0,0,86.94,8.63Z"/><path class="cls-1" d="M94.46.93A3.24,3.24,0,0,0,92.55.5a3.4,3.4,0,0,0-1.86.41,1.75,1.75,0,0,0-.6,1.54v.74a1.84,1.84,0,0,0,.55,1.53,3.12,3.12,0,0,0,1.87.42,3.46,3.46,0,0,0,1.91-.4A1.78,1.78,0,0,0,95,3.19V2.45A1.86,1.86,0,0,0,94.46.93Zm.4,8.76a2.17,2.17,0,0,0-.64-1.33,2.4,2.4,0,0,0-3.35,0,2.31,2.31,0,0,0-.48.73,2.5,2.5,0,0,0-.18,1V26.17a2.33,2.33,0,0,0,.66,1.69,2.4,2.4,0,0,0,3.35,0,2.3,2.3,0,0,0,.67-1.69V10.06A2.22,2.22,0,0,0,94.86,9.69Z"/><path class="cls-1" d="M115.05,24.84l-.8-1-4.81-6-1.3-1.61-.08-.1s0,0,0,0l-1.23-1.51-1.11-1.39h0l-1.88-2.34L102,8.65a2.38,2.38,0,0,0-1.91-1,2.41,2.41,0,0,0-1.66.66A2.18,2.18,0,0,0,97.73,10v.05a2.14,2.14,0,0,0,.51,1.35L100,13.55l1.45,1.8,2.46,3,2.64,3.29.1.12.92,1.13,3.75,4.67a2.89,2.89,0,0,0,.81.73,2.17,2.17,0,0,0,1.1.28,1.81,1.81,0,0,0,.52-.07,2.32,2.32,0,0,0,1.11-.63,2.23,2.23,0,0,0,.75-1.68A2.16,2.16,0,0,0,115.05,24.84Zm-8.38-3.31-2.27-3.79-.54.66-3,3.66-.24.29L98.44,25a2.23,2.23,0,0,0-.58,1.41.22.22,0,0,0,0,.08A1.8,1.8,0,0,0,98.61,28a2.48,2.48,0,0,0,1.54.6,2.25,2.25,0,0,0,1.87-1l.44-.56,3.42-4.32.72-.92.14-.17Zm8-13.21a2.15,2.15,0,0,0-1.58-.64,2.28,2.28,0,0,0-1.87,1.05l-2.16,2.86L107,14.33l-.22.29-.35.47.75,1,1.09,1.49.62.86.51-.62,1.06-1.3L114,12.25l.77-.94a1.88,1.88,0,0,0,.43-.74,2.64,2.64,0,0,0,.12-.78A2,2,0,0,0,114.72,8.32Z"/><path class="cls-1" d="M23.8,11.77a11.74,11.74,0,0,1,3.85-2.58v17a2.3,2.3,0,0,1-2.42,2.37,2.37,2.37,0,0,1-1.77-.68,2.27,2.27,0,0,1-.68-1.69V16.42L21,16.18a11.66,11.66,0,0,1,1.75-3.24A12.57,12.57,0,0,1,23.8,11.77Z"/><path class="cls-1" d="M43,24.6a11.69,11.69,0,0,1-3,4.18,8.69,8.69,0,0,1-3.2-1.23,9.83,9.83,0,0,1-3.45-3.82,12,12,0,0,1-1.26-5.6c0-.16,0-.31,0-.46a12.1,12.1,0,0,1,1-4.65c.08-.18.16-.35.25-.52a10.13,10.13,0,0,1,2.87-3.45A11.46,11.46,0,0,1,39,10.5h0a11.19,11.19,0,0,1,1.57,1.35,3.69,3.69,0,0,0-.79.34l-.42.24A5.3,5.3,0,0,0,38,13.67a5.22,5.22,0,0,0-.7,1.11,7.56,7.56,0,0,0-.72,3.35v.13a7.55,7.55,0,0,0,.72,3.19,5.75,5.75,0,0,0,2,2.34,5.24,5.24,0,0,0,3,.85A5.12,5.12,0,0,0,43,24.6Z"/><path class="cls-1" d="M108.31,17.62a5.41,5.41,0,0,1-.37,2,5,5,0,0,1-1.27,1.87,1.29,1.29,0,0,1-.17.16,5.27,5.27,0,0,1-1.5.92h0a5.17,5.17,0,0,1-3.83,0,3.65,3.65,0,0,1-.53-.25l.24-.29,3-3.66-2.46-3L100,13.55a5.22,5.22,0,0,1,5-.67,5,5,0,0,1,.7.34h0l1.11,1.39.22-.29a5,5,0,0,1,1,1.8s0,0,0,0l0,.09A5.31,5.31,0,0,1,108.31,17.62Z"/><path class="cls-1" d="M11.17,10.08l3.4,5.24-5.71-.76-1.7-2.7a5.44,5.44,0,0,1-1.11.33v2l-4.49-.6V8.8l4,.53.49.07,3.83.51Z"/><polygon class="cls-1" points="23.8 11.77 27.66 12.28 27.66 17.07 22.79 16.42 21.04 16.18 19.2 15.94 14.59 15.32 17.52 10.93 22.09 11.54 22.79 11.63 23.8 11.77"/><path class="cls-1" d="M38,13.67a5.22,5.22,0,0,0-.7,1.11,7.56,7.56,0,0,0-.72,3.35v.13l-4.47-.59a12.1,12.1,0,0,1,1-4.65Z"/><path class="cls-1" d="M47.39,14.92l5.14.68v4.79l-4.64-.62a7.93,7.93,0,0,0,.16-1.64c0-.16,0-.32,0-.47A7.31,7.31,0,0,0,47.39,14.92Z"/><polygon class="cls-1" points="59.63 16.55 64.31 17.18 64.31 21.96 59.63 21.34 59.63 16.55"/><polygon class="cls-1" points="78.23 19.04 78.23 23.82 73.56 23.19 73.56 18.41 78.23 19.04"/><polygon class="cls-1" points="90.22 20.63 94.89 21.26 94.89 26.04 90.22 25.42 90.22 20.63"/><path class="cls-1" d="M105,22.61l.88.12-3.42,4.32-4.6-.61A2.23,2.23,0,0,1,98.44,25l2.19-2.68.24-.29,4.12.55Z"/><path class="cls-1" d="M115.56,26.24a2.23,2.23,0,0,1-.75,1.68,2.32,2.32,0,0,1-1.11.63l-1.62-.21a2.89,2.89,0,0,1-.81-.73l-3.75-4.67,6.73.9.8,1A2.16,2.16,0,0,1,115.56,26.24Z"/><path class="cls-1" d="M10.49,9a5.9,5.9,0,0,1-.61.87,6.48,6.48,0,0,1-2.72,1.95,5.44,5.44,0,0,1-1.11.33,6.59,6.59,0,0,1-4.49-.73V3.58a2.22,2.22,0,0,1,.55-1.49l.17-.18A2.39,2.39,0,0,1,4,1.21a2.6,2.6,0,0,1,1.15.29,2.16,2.16,0,0,1,.91.76l.26.4Z"/><circle class="cls-1" cx="3.8" cy="23.38" r="3.3"/><circle class="cls-1" cx="23.51" cy="5.7" r="1.86"/><path class="cls-1" d="M52.53,9.67v7.59a11.07,11.07,0,0,1-3.23.48A8.7,8.7,0,0,1,48,17.66a7.31,7.31,0,0,0-.65-2.74l-.06-.14a5.75,5.75,0,0,0-2-2.34,5.32,5.32,0,0,0-3-.86,5.26,5.26,0,0,0-1.75.28,3.69,3.69,0,0,0-.79.34A11.27,11.27,0,0,1,39,10.51h0a10.47,10.47,0,0,1-.59-2.63,8.31,8.31,0,0,1,2.73-.57h.44a8.72,8.72,0,0,1,2.94.47l.15,0a9,9,0,0,1,2.43,1.28,7.11,7.11,0,0,1,.76.64V9.67a2.33,2.33,0,0,1,.43-1.41A2.17,2.17,0,0,1,48.52,8a2.25,2.25,0,0,1,1.67-.68A2.23,2.23,0,0,1,52.4,8.81,2.63,2.63,0,0,1,52.53,9.67Z"/><path class="cls-1" d="M60.26,6.78a10.9,10.9,0,0,1-.08,1.29,9.82,9.82,0,0,1-.35,1.73,4.75,4.75,0,0,1-.2.64,10.5,10.5,0,0,1-.9,1.92h-.89a2.14,2.14,0,0,1-2.19-2.18,2,2,0,0,1,.2-.91,1.9,1.9,0,0,1,.43-.6,2.14,2.14,0,0,1,1.56-.6h1.79V5.57A2.2,2.2,0,0,1,59.7,5,2.07,2.07,0,0,1,60,4.3c.06.24.11.5.15.75A10.92,10.92,0,0,1,60.26,6.78Z"/><path class="cls-1" d="M80.05,12.28A7.36,7.36,0,0,0,76,11.06a7.25,7.25,0,0,0-2.43.41,1.75,1.75,0,0,0-.32.12l.32,0V25.5a7.25,7.25,0,0,0,2.43.41,7.61,7.61,0,0,0,2.25-.34V16.92a7.35,7.35,0,0,1,.37-2.43,5.6,5.6,0,0,1,1-1.74,3.45,3.45,0,0,1,.26-.28Z"/><path class="cls-1" d="M6.08,2.26l.26.4L2.11,2.09l.17-.18A2.39,2.39,0,0,1,4,1.21a2.6,2.6,0,0,1,1.15.29A2.16,2.16,0,0,1,6.08,2.26Z"/><path class="cls-1" d="M26.91,1.87a2.2,2.2,0,0,1,.74,1.71V5.5l-2.36-.31-3.37-.45-.24,0,1.64-2.45a2.25,2.25,0,0,1,1.91-1A2.44,2.44,0,0,1,26.91,1.87Z"/><path class="cls-1" d="M41.57,7.29a8.72,8.72,0,0,1,2.94.47L41.13,7.3Z"/><path class="cls-1" d="M51.87,8a2.26,2.26,0,0,1,.53.86l-4.12-.55A2.17,2.17,0,0,1,48.52,8a2.25,2.25,0,0,1,1.67-.68A2.28,2.28,0,0,1,51.87,8Z"/><path class="cls-1" d="M68.64,8.69a2.11,2.11,0,0,1,.62,1.56,2.26,2.26,0,0,1-.14.79l-4.81-.64-4.48-.6-.2,0-3.78-.5a1.9,1.9,0,0,1,.43-.6,2.14,2.14,0,0,1,1.56-.6h1.79V5.57A2.2,2.2,0,0,1,59.7,5l.42.06,4.19.56V8.07h2.77A2.15,2.15,0,0,1,68.64,8.69Z"/><path class="cls-1" d="M80.05,12.28a3.34,3.34,0,0,1,.86-.56,3.39,3.39,0,0,1,1.42-.34,3.33,3.33,0,0,1,1.38.28,3.29,3.29,0,0,0,1.35.27,2.16,2.16,0,0,0,1.44-.57,2.3,2.3,0,0,0,.66-1.85,1.77,1.77,0,0,0-.22-.88l-5.58-.75a6.86,6.86,0,0,0-2.29,1.57,6.7,6.7,0,0,0-.84,1.14v-.53a2.35,2.35,0,0,0-.66-1.7,2.4,2.4,0,0,0-3.35,0,2.32,2.32,0,0,0-.67,1.7v1.41a1.75,1.75,0,0,0-.32.12l.32,0,4.53.61.15,0,1.61.21Z"/><path class="cls-1" d="M94.86,9.69a2.22,2.22,0,0,1,0,.37v4.42l-4.68-.62v-3.8a2.5,2.5,0,0,1,.18-1Z"/><path class="cls-1" d="M114,12.25l-3.54,4.31-2.36-.31h0l-.87-.11-5.82-.78L100,13.55l-1.71-2.13a2.14,2.14,0,0,1-.51-1.35l6.09.81,1.88,2.34h0l1.11,1.39.22-.29,2.07-2.74Z"/></g></g></svg>